<svg width="108" height="108" viewBox="0 0 108 108" fill="none" xmlns="http://www.w3.org/2000/svg">
<rect width="108" height="108" rx="54" fill="white"/>
<mask id="mask0_1_3" style="mask-type:alpha" maskUnits="userSpaceOnUse" x="8" y="8" width="92" height="92">
<rect x="8" y="8" width="92" height="92" fill="#D9D9D9"/>
</mask>
<g mask="url(#mask0_1_3)">
<path d="M53.5209 84.6667C53.7764 84.6667 54.032 84.6028 54.2875 84.475C54.5431 84.3472 54.7347 84.2194 54.8625 84.0917L86.2959 52.6583C87.0625 51.8917 87.6216 51.0292 87.9729 50.0708C88.3243 49.1125 88.5 48.1542 88.5 47.1958C88.5 46.1736 88.3243 45.1993 87.9729 44.2729C87.6216 43.3465 87.0625 42.5319 86.2959 41.8292L70.0042 25.5375C69.3014 24.7708 68.4868 24.2118 67.5604 23.8604C66.6341 23.509 65.6597 23.3333 64.6375 23.3333C63.6792 23.3333 62.7209 23.509 61.7625 23.8604C60.8042 24.2118 59.9417 24.7708 59.175 25.5375L58.1209 26.5917L65.2125 33.7792C66.1709 34.6736 66.8736 35.6958 67.3209 36.8458C67.7681 37.9958 67.9917 39.2097 67.9917 40.4875C67.9917 43.1708 67.0813 45.4229 65.2604 47.2437C63.4396 49.0646 61.1875 49.975 58.5042 49.975C57.2264 49.975 55.9966 49.7514 54.8146 49.3042C53.6327 48.8569 52.5945 48.1861 51.7 47.2917L44.5125 40.2L27.7417 56.9708C27.55 57.1625 27.4063 57.3701 27.3104 57.5937C27.2146 57.8174 27.1667 58.0569 27.1667 58.3125C27.1667 58.8236 27.3584 59.2868 27.7417 59.7021C28.125 60.1174 28.5722 60.325 29.0834 60.325C29.3389 60.325 29.5945 60.2611 29.85 60.1333C30.1056 60.0056 30.2972 59.8778 30.425 59.75L43.4584 46.7167L48.825 52.0833L35.8875 65.1167C35.6959 65.3083 35.5521 65.516 35.4563 65.7396C35.3604 65.9632 35.3125 66.2028 35.3125 66.4583C35.3125 66.9694 35.5042 67.4167 35.8875 67.8C36.2709 68.1833 36.7181 68.375 37.2292 68.375C37.4847 68.375 37.7403 68.3111 37.9959 68.1833C38.2514 68.0555 38.4431 67.9278 38.5709 67.8L51.6042 54.8625L56.9709 60.2292L44.0334 73.2625C43.8417 73.3903 43.6979 73.5819 43.6021 73.8375C43.5063 74.093 43.4584 74.3486 43.4584 74.6042C43.4584 75.1153 43.65 75.5625 44.0334 75.9458C44.4167 76.3292 44.8639 76.5208 45.375 76.5208C45.6306 76.5208 45.8702 76.4729 46.0938 76.3771C46.3174 76.2812 46.525 76.1375 46.7167 75.9458L59.75 63.0083L65.1167 68.375L52.0834 81.4083C51.8917 81.6 51.7479 81.8076 51.6521 82.0312C51.5563 82.2549 51.5084 82.4944 51.5084 82.75C51.5084 83.2611 51.716 83.7083 52.1313 84.0917C52.5466 84.475 53.0097 84.6667 53.5209 84.6667ZM53.425 92.3333C51.0611 92.3333 48.9688 91.5507 47.1479 89.9854C45.3271 88.4201 44.257 86.4556 43.9375 84.0917C41.7653 83.7722 39.9445 82.8778 38.475 81.4083C37.0056 79.9389 36.1111 78.118 35.7917 75.9458C33.6195 75.6264 31.8146 74.716 30.3771 73.2146C28.9396 71.7132 28.0611 69.9083 27.7417 67.8C25.3139 67.4805 23.3334 66.4264 21.8 64.6375C20.2667 62.8486 19.5 60.7403 19.5 58.3125C19.5 57.0347 19.7396 55.8049 20.2188 54.6229C20.6979 53.441 21.3847 52.4028 22.2792 51.5083L44.5125 29.3708L57.0667 41.925C57.1945 42.1167 57.3861 42.2604 57.6417 42.3562C57.8972 42.4521 58.1528 42.5 58.4084 42.5C58.9834 42.5 59.4625 42.3243 59.8459 41.9729C60.2292 41.6215 60.4209 41.1583 60.4209 40.5833C60.4209 40.3278 60.3729 40.0722 60.2771 39.8167C60.1813 39.5611 60.0375 39.3694 59.8459 39.2417L46.1417 25.5375C45.4389 24.7708 44.6243 24.2118 43.6979 23.8604C42.7716 23.509 41.7972 23.3333 40.775 23.3333C39.8167 23.3333 38.8584 23.509 37.9 23.8604C36.9417 24.2118 36.0792 24.7708 35.3125 25.5375L21.8 39.1458C21.225 39.7208 20.7459 40.3917 20.3625 41.1583C19.9792 41.925 19.7236 42.6917 19.5959 43.4583C19.4681 44.225 19.4681 45.0076 19.5959 45.8062C19.7236 46.6049 19.9792 47.3555 20.3625 48.0583L14.8042 53.6167C13.7181 52.1472 12.9195 50.534 12.4084 48.7771C11.8972 47.0201 11.7056 45.2472 11.8334 43.4583C11.9611 41.6694 12.4084 39.9285 13.175 38.2354C13.9417 36.5424 14.9959 35.025 16.3375 33.6833L29.85 20.1708C31.3834 18.7014 33.0924 17.5833 34.9771 16.8167C36.8618 16.05 38.7945 15.6667 40.775 15.6667C42.7556 15.6667 44.6882 16.05 46.5729 16.8167C48.4577 17.5833 50.1347 18.7014 51.6042 20.1708L52.6584 21.225L53.7125 20.1708C55.2459 18.7014 56.9549 17.5833 58.8396 16.8167C60.7243 16.05 62.657 15.6667 64.6375 15.6667C66.6181 15.6667 68.5507 16.05 70.4354 16.8167C72.3202 17.5833 73.9972 18.7014 75.4667 20.1708L91.6625 36.3667C93.132 37.8361 94.25 39.5292 95.0167 41.4458C95.7834 43.3625 96.1667 45.3111 96.1667 47.2917C96.1667 49.2722 95.7834 51.2049 95.0167 53.0896C94.25 54.9743 93.132 56.6514 91.6625 58.1208L60.2292 89.4583C59.3347 90.3528 58.2966 91.0555 57.1146 91.5667C55.9327 92.0778 54.7028 92.3333 53.425 92.3333Z" fill="#9A8BE0"/>
</g>
</svg>
